<?xml version="1.0" encoding="UTF-8"?>
<!DOCTYPE svg PUBLIC "-//W3C//DTD SVG 1.1//EN" "http://www.w3.org/Graphics/SVG/1.1/DTD/svg11.dtd">
<!-- Creator: CorelDRAW X8 -->
<svg xmlns="http://www.w3.org/2000/svg" xml:space="preserve" width="70mm" height="60mm" version="1.1" shape-rendering="geometricPrecision" text-rendering="geometricPrecision" image-rendering="optimizeQuality" fill-rule="evenodd" clip-rule="evenodd"
viewBox="0 0 7000 6000"
 xmlns:xlink="http://www.w3.org/1999/xlink">
 <g id="Camada_x0020_1">
  <metadata id="CorelCorpID_0Corel-Layer"/>
  <path fill="#AFBD77" d="M3533 4263c-1005,485 -2011,26 -3020,-1680 1470,35 2804,224 3020,1680z"/>
  <path fill="#D2E28B" d="M3529 4298c-1107,-145 -1698,-1080 -1607,-3061 1211,836 2224,1725 1607,3061z"/>
  <path fill="#6FC176" d="M3529 4298c-931,-616 -1050,-1716 -98,-3455 720,1282 1239,2526 98,3455z"/>
  <path fill="#A8CF45" d="M3529 4298c-573,-958 -205,-2001 1405,-3158 95,1468 26,2814 -1405,3158z"/>
  <path fill="#00A859" d="M3555 4258c77,-1113 975,-1760 2957,-1789 -760,1259 -1586,2324 -2957,1789z"/>
  <polygon fill="#00A859" fill-rule="nonzero" points="501,4518 777,4866 1042,4592 1317,5349 1046,5570 924,5205 771,5473 587,5189 478,5522 216,5352 "/>
  <path id="1" fill="#00A859" fill-rule="nonzero" d="M1897 5407c-46,33 -93,57 -141,72 -47,14 -103,22 -165,22 -51,0 -97,-9 -140,-27 -42,-17 -78,-41 -109,-71 -31,-30 -55,-65 -72,-105 -17,-40 -26,-83 -26,-128 0,-56 9,-106 27,-150 18,-45 42,-82 73,-113 31,-30 67,-54 107,-70 41,-16 85,-24 131,-24 75,0 140,19 195,57 55,38 96,89 123,153l-336 253c9,4 19,7 33,9 13,1 26,2 37,2 34,0 63,-6 87,-18 24,-13 45,-28 65,-45l111 183zm-241 -368c-10,-13 -21,-22 -34,-26 -12,-5 -26,-7 -42,-7 -15,0 -29,3 -41,10 -12,6 -23,15 -32,26 -9,10 -16,23 -21,36 -5,14 -7,27 -7,42 0,13 1,23 3,28 2,6 4,12 7,18l167 -127z"/>
  <path id="2" fill="#00A859" fill-rule="nonzero" d="M2306 5392l-2 0c-15,41 -39,70 -70,87 -32,18 -70,26 -112,26 -56,0 -102,-17 -137,-50 -35,-33 -52,-82 -52,-145l0 -472 251 -21 -7 416c-1,18 3,31 12,39 8,8 21,12 39,12 15,0 28,-4 37,-11 9,-8 14,-21 13,-39l-7 -396 259 -21 -17 669 -207 9 0 -103z"/>
  <path id="3" fill="#00A859" fill-rule="nonzero" d="M3503 4562c4,120 8,221 9,304 2,83 3,149 4,198 0,49 0,87 -1,114 -1,26 -2,43 -3,51 -1,8 -1,12 -1,12 -5,19 -12,41 -23,65 -11,25 -26,50 -44,74 -18,25 -41,48 -67,70 -26,22 -57,39 -92,51 -35,12 -75,17 -119,17 -44,-1 -94,-12 -147,-32 0,0 -8,-4 -24,-13 -16,-8 -32,-24 -50,-47 -17,-23 -31,-54 -42,-94 -11,-40 -13,-91 -5,-153l248 -78c-8,39 -12,69 -11,92 0,23 2,40 7,50 4,10 9,16 15,18 6,3 11,3 15,1 4,-1 6,-2 7,-2 1,-1 5,-4 11,-10 7,-6 14,-17 21,-33 6,-15 9,-35 8,-60l-38 -539 322 -56z"/>
  <path id="4" fill="#00A859" fill-rule="nonzero" d="M3946 5414l-3 0c-20,29 -45,48 -77,60 -31,11 -64,17 -100,17 -30,0 -59,-6 -86,-17 -27,-11 -50,-26 -70,-46 -21,-21 -37,-45 -49,-73 -12,-29 -18,-61 -18,-96 0,-31 6,-59 18,-85 12,-26 29,-48 49,-67 21,-19 45,-34 73,-45 28,-11 59,-16 92,-16 34,0 63,5 87,15 24,10 44,21 60,34l0 -34c0,-34 -11,-57 -34,-68 -22,-12 -51,-17 -87,-17 -33,0 -64,3 -92,10 -29,7 -58,15 -87,24l44 -179c36,-11 73,-18 112,-22 39,-4 79,-6 119,-6 37,0 73,4 108,13 35,8 66,22 93,42 27,19 48,44 63,75 16,31 24,69 23,114l-12 424 -226 20 0 -77zm-143 -208c-26,4 -47,13 -63,27 -16,13 -24,29 -21,46 3,18 13,30 32,39 18,9 42,11 71,6 29,-4 51,-14 65,-28 14,-14 20,-29 17,-46 -2,-14 -12,-26 -29,-36 -16,-11 -41,-13 -72,-8z"/>
  <path id="5" fill="#00A859" fill-rule="nonzero" d="M4490 4819l0 124 2 0c19,-83 75,-124 168,-124 21,0 40,1 58,3l-59 239c-5,0 -11,-1 -17,-1 -5,0 -12,0 -22,0 -32,0 -59,10 -82,31 -22,21 -34,53 -34,97l0 289 -236 20 -7 -658 229 -20z"/>
  <path id="6" fill="#00A859" fill-rule="nonzero" d="M5377 5483l-220 14 0 -64 -2 0c-18,24 -43,42 -74,52 -31,11 -62,17 -94,17 -38,0 -75,-8 -110,-23 -36,-16 -68,-38 -95,-67 -28,-28 -50,-64 -67,-106 -16,-42 -24,-89 -24,-142 0,-48 7,-94 21,-136 13,-42 33,-79 60,-111 26,-32 58,-57 97,-75 38,-19 82,-28 132,-28 25,0 49,3 72,10 23,6 43,17 61,32l-11 -268 259 -20 -5 915zm-311 -223c17,-6 30,-14 42,-24 11,-10 20,-21 26,-34 6,-12 10,-25 11,-38 0,-14 -1,-27 -6,-40 -4,-12 -11,-23 -21,-32 -9,-10 -20,-18 -33,-23 -13,-6 -27,-9 -42,-10 -15,-1 -31,2 -48,8 -17,6 -31,14 -42,25 -12,10 -20,22 -27,34 -6,12 -10,25 -11,39 0,14 2,27 6,39 5,13 12,24 21,33 9,9 20,17 33,23 13,5 27,8 42,9 16,0 32,-3 49,-9z"/>
  <path id="7" fill="#00A859" fill-rule="nonzero" d="M5492 4853l251 -20 -13 649 -238 20 0 -649zm-1 -284l257 -11 -13 198 -245 18 1 -205z"/>
  <path id="8" fill="#00A859" fill-rule="nonzero" d="M6525 5090c0,-14 -5,-25 -16,-34 -10,-9 -24,-14 -42,-14 -18,0 -32,6 -42,17 -11,11 -16,23 -16,35l7 384 -244 20 4 -405c1,-15 -4,-27 -15,-37 -12,-9 -26,-14 -44,-14 -14,0 -28,5 -40,14 -12,9 -18,21 -17,38l11 406 -236 -21 -14 -639 230 -20 0 103 2 0c24,-32 51,-57 81,-76 31,-18 67,-27 110,-27 35,0 64,5 88,16 24,11 45,28 65,51 19,-20 41,-36 66,-49 25,-12 52,-18 82,-18 34,0 63,5 89,17 26,12 48,28 66,49 17,21 31,45 40,74 9,28 14,58 15,90l7 428 -244 20 7 -408z"/>
 </g>
</svg>
