<?xml version="1.0" encoding="UTF-8"?>
<!DOCTYPE svg PUBLIC "-//W3C//DTD SVG 1.1//EN" "http://www.w3.org/Graphics/SVG/1.1/DTD/svg11.dtd">
<!-- Creator: CorelDRAW X8 -->
<svg xmlns="http://www.w3.org/2000/svg" xml:space="preserve" width="100mm" height="15mm" version="1.1" shape-rendering="geometricPrecision" text-rendering="geometricPrecision" image-rendering="optimizeQuality" fill-rule="evenodd" clip-rule="evenodd"
viewBox="0 0 10000 1500"
 xmlns:xlink="http://www.w3.org/1999/xlink">
 <g id="Camada_x0020_1">
  <metadata id="CorelCorpID_0Corel-Layer"/>
  <path fill="#AFBD77" d="M1393 1292c-340,164 -681,9 -1023,-569 498,12 950,76 1023,569z"/>
  <path fill="#D2E28B" d="M1392 1304c-375,-49 -575,-366 -545,-1037 410,283 754,584 545,1037z"/>
  <path fill="#6FC176" d="M1392 1304c-316,-209 -356,-582 -34,-1171 244,435 420,856 34,1171z"/>
  <path fill="#A8CF45" d="M1392 1304c-194,-325 -70,-678 476,-1070 32,497 9,953 -476,1070z"/>
  <path fill="#00A859" d="M1401 1290c26,-377 330,-596 1002,-606 -258,427 -538,788 -1002,606z"/>
  <polygon fill="#00A859" fill-rule="nonzero" points="3383,306 3658,653 3924,379 4199,1137 3928,1358 3806,993 3653,1260 3468,977 3359,1310 3098,1140 "/>
  <path id="1" fill="#00A859" fill-rule="nonzero" d="M4779 1195c-46,33 -93,57 -141,71 -48,15 -103,22 -165,22 -51,0 -98,-9 -140,-26 -42,-18 -79,-42 -109,-71 -31,-30 -55,-65 -72,-106 -18,-40 -26,-82 -26,-127 0,-56 9,-106 27,-151 18,-44 42,-81 73,-112 31,-31 66,-54 107,-70 41,-16 85,-24 131,-24 75,0 140,19 195,57 55,38 96,89 123,153l-336 253c8,4 19,7 33,9 13,1 26,2 37,2 34,0 63,-6 87,-19 23,-12 45,-27 64,-44l112 183zm-241 -369c-10,-12 -22,-21 -34,-25 -12,-5 -26,-7 -42,-7 -15,0 -29,3 -41,9 -13,7 -23,15 -32,26 -9,11 -16,23 -21,37 -5,13 -7,27 -7,41 0,14 1,23 2,29 2,6 5,11 8,17l167 -127z"/>
  <path id="2" fill="#00A859" fill-rule="nonzero" d="M5188 1179l-2 0c-15,41 -39,71 -71,88 -32,17 -69,26 -112,26 -56,0 -101,-17 -136,-50 -35,-34 -52,-82 -52,-146l0 -472 250 -20 -6 416c-1,18 3,31 11,39 9,7 22,11 40,11 15,0 27,-3 37,-11 9,-7 13,-20 13,-38l-7 -397 258 -20 -16 669 -207 9 0 -104z"/>
  <path id="3" fill="#00A859" fill-rule="nonzero" d="M6385 350c4,120 7,221 9,304 2,83 3,149 4,198 0,49 0,87 -2,113 -1,27 -2,44 -2,52 -1,8 -1,12 -1,12 -5,18 -13,40 -24,65 -10,25 -25,49 -43,74 -19,25 -41,48 -67,70 -26,21 -57,38 -92,50 -36,12 -75,18 -120,17 -44,-1 -93,-11 -147,-31 0,0 -8,-5 -23,-13 -16,-9 -33,-25 -50,-47 -17,-23 -31,-55 -42,-94 -12,-40 -13,-91 -5,-153l247 -79c-7,39 -11,70 -10,93 0,23 2,39 6,49 4,11 10,17 16,19 6,2 11,3 15,1 4,-1 6,-2 7,-2 1,-1 4,-4 11,-10 7,-6 14,-17 20,-33 7,-16 10,-36 8,-61l-37 -538 322 -56z"/>
  <path id="4" fill="#00A859" fill-rule="nonzero" d="M6827 1202l-2 0c-20,28 -46,48 -77,59 -31,12 -64,17 -100,17 -30,0 -59,-5 -86,-16 -27,-11 -50,-27 -71,-47 -20,-20 -36,-44 -48,-73 -12,-28 -18,-60 -18,-95 0,-31 6,-59 18,-85 12,-26 28,-48 49,-68 21,-19 45,-34 73,-45 28,-10 59,-16 92,-16 34,0 63,5 87,15 23,10 43,22 60,35l0 -34c0,-35 -11,-57 -34,-69 -22,-11 -52,-17 -88,-17 -33,0 -63,4 -92,11 -28,6 -57,14 -86,23l44 -178c36,-11 73,-18 112,-22 39,-5 79,-7 119,-7 37,0 73,5 108,13 35,9 66,23 93,42 26,20 47,45 63,76 16,31 23,68 23,113l-13 425 -226 19 0 -76zm-142 -208c-26,4 -47,12 -63,26 -17,14 -24,30 -22,47 3,17 14,30 32,39 19,8 43,10 72,6 29,-5 51,-14 65,-28 14,-14 20,-30 17,-46 -2,-15 -12,-27 -29,-37 -17,-10 -41,-12 -72,-7z"/>
  <path id="5" fill="#00A859" fill-rule="nonzero" d="M7371 606l0 125 3 0c19,-83 75,-125 168,-125 20,0 39,1 57,4l-58 239c-5,-1 -11,-1 -17,-1 -5,0 -13,0 -22,0 -32,0 -59,10 -82,31 -23,20 -34,53 -34,97l0 289 -236 20 -7 -659 228 -20z"/>
  <path id="6" fill="#00A859" fill-rule="nonzero" d="M8259 1270l-220 15 0 -64 -2 0c-18,24 -43,41 -74,52 -31,11 -62,16 -94,16 -38,0 -75,-7 -111,-23 -35,-15 -67,-37 -94,-66 -28,-29 -50,-64 -67,-106 -16,-42 -25,-90 -25,-143 0,-48 7,-93 21,-135 14,-43 34,-80 60,-112 27,-31 59,-56 98,-75 38,-18 82,-27 132,-27 24,0 48,3 72,9 23,7 43,17 60,32l-10 -267 259 -20 -5 914zm-311 -222c16,-6 30,-14 41,-24 12,-10 20,-22 27,-34 6,-12 10,-25 10,-39 1,-13 -1,-26 -5,-39 -5,-12 -12,-23 -21,-33 -9,-9 -20,-17 -33,-23 -13,-5 -27,-9 -42,-9 -16,-1 -31,2 -48,8 -17,6 -31,14 -43,24 -11,11 -20,22 -26,35 -6,12 -10,25 -11,39 -1,14 1,27 6,39 4,12 11,23 21,33 9,9 20,17 33,22 13,6 27,9 42,9 15,1 32,-2 49,-8z"/>
  <path id="7" fill="#00A859" fill-rule="nonzero" d="M8374 641l250 -20 -12 648 -238 20 0 -648zm-1 -284l257 -12 -14 198 -245 18 2 -204z"/>
  <path id="8" fill="#00A859" fill-rule="nonzero" d="M9407 878c0,-14 -6,-26 -16,-35 -11,-9 -25,-13 -42,-13 -18,0 -32,5 -43,17 -10,11 -15,23 -15,34l7 385 -244 20 4 -406c1,-15 -4,-27 -16,-36 -11,-10 -25,-14 -43,-14 -15,0 -28,4 -40,13 -13,9 -18,22 -18,38l12 406 -236 -20 -14 -639 229 -21 0 104 3 0c23,-33 51,-58 81,-76 30,-19 67,-28 110,-28 35,0 64,6 88,17 23,10 45,27 64,51 20,-21 42,-37 67,-49 24,-13 52,-19 82,-19 33,0 63,6 89,18 26,11 48,28 65,49 18,21 31,45 41,73 9,28 14,58 15,91l7 428 -244 20 7 -408z"/>
 </g>
</svg>
